<?xml version="1.0" encoding="UTF-8" standalone="no"?>
<!-- Created with Inkscape (http://www.inkscape.org/) -->

<svg
   width="71.827354mm"
   height="9.322978mm"
   viewBox="0 0 71.827353 9.322978"
   version="1.1"
   id="svg1"
   inkscape:version="1.4.3 (0d15f75042, 2025-12-25)"
   sodipodi:docname="Automotive-Cover.svg"
   xmlns:inkscape="http://www.inkscape.org/namespaces/inkscape"
   xmlns:sodipodi="http://sodipodi.sourceforge.net/DTD/sodipodi-0.dtd"
   xmlns="http://www.w3.org/2000/svg"
   xmlns:svg="http://www.w3.org/2000/svg">
  <sodipodi:namedview
     id="namedview1"
     pagecolor="#505050"
     bordercolor="#ffffff"
     borderopacity="1"
     inkscape:showpageshadow="0"
     inkscape:pageopacity="0"
     inkscape:pagecheckerboard="1"
     inkscape:deskcolor="#505050"
     inkscape:document-units="mm"
     inkscape:zoom="1.4142136"
     inkscape:cx="232.28458"
     inkscape:cy="-41.012193"
     inkscape:window-width="1694"
     inkscape:window-height="1372"
     inkscape:window-x="0"
     inkscape:window-y="0"
     inkscape:window-maximized="1"
     inkscape:current-layer="layer1"
     showguides="true" />
  <defs
     id="defs1">
    <clipPath
       clipPathUnits="userSpaceOnUse"
       id="clipPath5">
      <path
         id="path5"
         style="stroke-width:0.1;stroke-linecap:square;paint-order:markers fill stroke;stop-color:#000000"
         d="M 438.25066,553.76374 H 1298.1212 V 755.15928 H 438.25066 Z"
         sodipodi:nodetypes="ccccc" />
    </clipPath>
    <clipPath
       clipPathUnits="userSpaceOnUse"
       id="clipPath15">
      <rect
         style="fill:none;stroke:#000000;stroke-linecap:butt;stroke-linejoin:bevel;paint-order:stroke markers fill;stop-color:#000000"
         id="rect15-7"
         width="45.034248"
         height="38.955639"
         x="262.48285"
         y="121.00073" />
    </clipPath>
  </defs>
  <g
     inkscape:label="Layer 1"
     inkscape:groupmode="layer"
     id="layer1"
     transform="translate(-70.08974,-137.04103)">
    <path
       d="m 78.861232,146.28459 h -1.780704 l 1.686085,-3.55786 0.594679,-5.2115 h 1.914867 l 2.280764,8.76936 h -1.780704 l -0.365898,-1.40261 H 79.22713 Z m 1.451395,-5.59824 -0.64642,2.47591 h 1.29284 z m 8.854725,-3.17112 v 6.24466 c 0,0.34963 -0.06911,0.67894 -0.207343,0.98792 -0.130097,0.30898 -0.313046,0.57731 -0.548847,0.80498 -0.227669,0.22767 -0.495994,0.41062 -0.804975,0.54885 -0.308981,0.13009 -0.638289,0.19514 -0.987925,0.19514 -0.349636,0 -0.678944,-0.0651 -0.987924,-0.19514 -0.308981,-0.13823 -0.577306,-0.32118 -0.804976,-0.54885 -0.22767,-0.22767 -0.410619,-0.496 -0.548847,-0.80498 -0.130097,-0.30898 -0.195146,-0.63829 -0.195146,-0.98792 v -6.24466 h 1.719721 v 6.29345 c 0,0.22767 0.07725,0.42281 0.231735,0.58543 0.162621,0.15449 0.357767,0.23174 0.585437,0.23174 0.22767,0 0.422816,-0.0773 0.585437,-0.23174 0.162621,-0.16262 0.243932,-0.35776 0.243932,-0.58543 v -6.29345 z m 4.024889,1.71972 v 7.06183 H 91.47252 v -7.06183 h -1.695327 v -1.73192 h 5.110375 v 1.73192 z m 3.74436,7.04964 c -0.211407,0 -0.410618,-0.0407 -0.597633,-0.12197 -0.187015,-0.0813 -0.349636,-0.19108 -0.487864,-0.32931 -0.138228,-0.13823 -0.247997,-0.30085 -0.329308,-0.48786 -0.08131,-0.18701 -0.121966,-0.38623 -0.121966,-0.59764 V 139.052 c 0,-0.21141 0.04066,-0.41062 0.121966,-0.59763 0.08131,-0.18701 0.19108,-0.34964 0.329308,-0.48787 0.138228,-0.13823 0.300849,-0.24799 0.487864,-0.3293 0.187015,-0.0813 0.386226,-0.12197 0.597633,-0.12197 h 2.036833 c 0.211407,0 0.410618,0.0407 0.597633,0.12197 0.187015,0.0813 0.349636,0.19107 0.487863,0.3293 0.13823,0.13823 0.248,0.30086 0.32931,0.48787 0.0813,0.18701 0.12197,0.38622 0.12197,0.59763 v 5.69581 c 0,0.21141 -0.0407,0.41063 -0.12197,0.59764 -0.0813,0.18701 -0.19108,0.34963 -0.32931,0.48786 -0.138227,0.13823 -0.300848,0.248 -0.487863,0.32931 -0.187015,0.0813 -0.386226,0.12197 -0.597633,0.12197 z m 0.512258,-7.04964 c -0.08944,0 -0.166687,0.0325 -0.231736,0.0976 -0.06505,0.0651 -0.09757,0.14231 -0.09757,0.23174 v 4.6713 c 0,0.0894 0.03252,0.16668 0.09757,0.23173 0.06505,0.0569 0.142292,0.0854 0.231736,0.0854 l 1.012317,0.0122 c 0.08944,0 0.162622,-0.0325 0.219539,-0.0976 0.06505,-0.0651 0.09757,-0.14231 0.09757,-0.23173 v -4.6713 c 0,-0.0894 -0.03252,-0.16669 -0.09757,-0.23174 -0.05692,-0.0651 -0.1301,-0.0976 -0.219539,-0.0976 z m 10.550051,-1.73192 v 8.78156 h -1.71972 v -5.18356 l -1.30504,2.39053 h -0.80497 l -1.31723,-2.39053 v 5.18356 h -1.71972 v -8.78156 h 1.71972 l 1.71972,3.13453 1.70752,-3.13453 z m 2.1588,8.78156 c -0.21141,0 -0.41062,-0.0407 -0.59763,-0.12197 -0.18701,-0.0813 -0.34963,-0.19108 -0.48786,-0.32931 -0.13823,-0.13823 -0.248,-0.30085 -0.32931,-0.48786 -0.0813,-0.18701 -0.12197,-0.38623 -0.12197,-0.59764 V 139.052 c 0,-0.21141 0.0407,-0.41062 0.12197,-0.59763 0.0813,-0.18701 0.19108,-0.34964 0.32931,-0.48787 0.13823,-0.13823 0.30085,-0.24799 0.48786,-0.3293 0.18701,-0.0813 0.38622,-0.12197 0.59763,-0.12197 h 2.03683 c 0.21141,0 0.41063,0.0407 0.59764,0.12197 0.18701,0.0813 0.34963,0.19107 0.48786,0.3293 0.13823,0.13823 0.248,0.30086 0.32931,0.48787 0.0813,0.18701 0.12197,0.38622 0.12197,0.59763 v 5.69581 c 0,0.21141 -0.0407,0.41063 -0.12197,0.59764 -0.0813,0.18701 -0.19108,0.34963 -0.32931,0.48786 -0.13823,0.13823 -0.30085,0.248 -0.48786,0.32931 -0.18701,0.0813 -0.38623,0.12197 -0.59764,0.12197 z m 0.51226,-7.04964 c -0.0894,0 -0.16669,0.0325 -0.23174,0.0976 -0.0651,0.0651 -0.0976,0.14231 -0.0976,0.23174 v 4.6713 c 0,0.0894 0.0325,0.16668 0.0976,0.23173 0.0651,0.0569 0.14231,0.0854 0.23174,0.0854 l 1.01232,0.0122 c 0.0894,0 0.16262,-0.0325 0.21954,-0.0976 0.0651,-0.0651 0.0976,-0.14231 0.0976,-0.23173 v -4.6713 c 0,-0.0894 -0.0325,-0.16669 -0.0976,-0.23174 -0.0569,-0.0651 -0.13011,-0.0976 -0.21954,-0.0976 z m 7.09841,0 v 7.06183 h -1.71972 v -7.06183 h -1.69533 v -1.73192 h 5.11038 v 1.73192 z m 3.92731,7.04964 h -1.71972 v -8.78156 h 1.71972 z m 2.8906,0.0122 -2.28077,-8.78155 h 1.78071 l 1.45139,5.61044 1.46359,-5.61044 h 1.78071 l -2.28077,8.78155 z m 4.78107,-0.0122 v -8.78156 h 4.62251 l -0.79375,1.73192 h -2.10904 v 1.8051 l 1.40209,-0.0331 0.19844,1.75279 h -1.60053 v 1.80509 h 2.34055 v 1.71973 z"
       id="text5"
       style="font-size:12.1966px;line-height:0;font-family:'Neotheric DEMO';-inkscape-font-specification:'Neotheric DEMO';opacity:0.998712;fill:#c74848;stroke-width:1.38921;stroke-linecap:square;stroke-dashoffset:29.6323;paint-order:stroke markers fill"
       aria-label="AUTOMOTIVE"
       sodipodi:nodetypes="cccccccccccccccscccscscsccscscscccccccccccsssssssssssssssssssssssssccccsscssccccccccccccccsssssssssssssssssssssssssccccsscssccccccccccccccccccccccccccccccccccc" />
    <g
       id="g4"
       inkscape:label="TIRE"
       transform="matrix(0.35936773,0.31183587,-0.31183587,0.35936773,150.80235,32.682506)">
      <path
         id="path125"
         style="opacity:1;fill:#111111;stroke-width:2.19122;stroke-linecap:square;stroke-dashoffset:29.6323;paint-order:stroke markers fill"
         d="m 128.62305,181.91028 c -2.45475,0.0373 -4.88983,0.97656 -6.67167,2.67651 -1.90623,1.77323 -3.03031,4.3344 -3.0838,6.93596 -0.0533,2.56802 0.94965,5.12927 2.72839,6.98371 1.77875,1.85514 4.29983,2.9545 6.86988,3.00855 2.56801,0.05 5.13251,-0.94714 6.9858,-2.72999 1.8552,-1.77875 2.95436,-4.29985 3.00868,-6.86988 0.0497,-2.56758 -0.94755,-5.13098 -2.73013,-6.98385 -1.77863,-1.85405 -4.29941,-2.95835 -6.87001,-3.0089 -0.0788,0.002 -0.15844,-0.0232 -0.23714,-0.0121 z m 1.07226,3.92774 c 2.61222,0.44985 4.7702,2.77916 4.90066,5.44336 0.28853,2.86402 -1.84075,5.70347 -4.66363,6.25394 -2.729,0.6562 -5.76691,-0.9365 -6.77904,-3.55674 -1.11438,-2.5728 -0.0816,-5.83889 2.32386,-7.28949 1.23576,-0.80279 2.7687,-1.07369 4.21815,-0.85107 z" />
      <path
         id="rect126"
         style="opacity:1;stroke-width:3.98327;stroke-linecap:square;stroke-dashoffset:29.6323;paint-order:stroke markers fill"
         d="m 128.40817,185.50943 h 0.22801 0.22802 v 4.13406 l 0.21084,0.27694 c 0.0204,0.026 -0.316,0.0207 -0.43886,0.0207 l -0.46366,-0.0124 0.23565,-0.30916 z"
         sodipodi:nodetypes="ccccccccc" />
      <circle
         style="opacity:1;fill:#000000;fill-opacity:1;stroke:none;stroke-width:6.08478;stroke-linecap:square;stroke-dashoffset:29.6323;paint-order:stroke markers fill"
         id="circle126"
         cx="128.66383"
         cy="191.71214"
         r="1.9293518" />
      <circle
         style="opacity:1;fill:#d9d9d9;fill-opacity:1;stroke:none;stroke-width:4.68344;stroke-linecap:square;stroke-dashoffset:29.6323;paint-order:stroke markers fill"
         id="path126"
         cx="128.66383"
         cy="191.71214"
         r="1.4850162" />
      <path
         id="path127"
         style="opacity:1;fill:#000000;fill-opacity:1;stroke-width:1.82227;stroke-linecap:square;stroke-dashoffset:29.6323;paint-order:stroke markers fill"
         d="m 128.31137,184.45412 c -3.16391,0.12709 -6.05992,2.54032 -6.7312,5.64028 -0.80784,3.33437 1.09683,7.09941 4.31653,8.33971 2.97956,1.26879 6.73131,0.24297 8.62098,-2.39575 1.16626,-1.59562 1.70016,-3.83145 1.26397,-5.83089 -0.59167,-2.94585 -3.18056,-5.3215 -6.15738,-5.6921 -0.43415,-0.0688 -0.8744,-0.0741 -1.3129,-0.0612 z m 0.59123,1.42935 c 3.1247,0.0489 5.844,3.01904 5.59461,6.14157 -0.10142,3.02198 -2.89385,5.65622 -5.92596,5.53201 -2.93675,-0.0165 -5.64038,-2.53764 -5.72798,-5.49861 -0.19637,-2.816 1.91678,-5.61655 4.73158,-6.06207 0.43643,-0.0861 0.88352,-0.11365 1.32775,-0.1129 z" />
      <path
         id="path128"
         style="opacity:1;stroke-width:3.98327;stroke-linecap:square;stroke-dashoffset:29.6323;paint-order:stroke markers fill"
         d="m 130.76813,185.89076 0.21079,0.0869 0.21081,0.0869 -1.57631,3.82174 0.0893,0.33641 c 0.009,0.0318 -0.30002,-0.10136 -0.41359,-0.14819 l -0.42391,-0.18825 0.33572,-0.19596 z"
         sodipodi:nodetypes="ccccccccc" />
      <path
         id="path129"
         style="opacity:1;stroke-width:3.98327;stroke-linecap:square;stroke-dashoffset:29.6323;paint-order:stroke markers fill"
         d="m 133.12896,187.34863 0.15762,0.16473 0.15765,0.16475 -2.98743,2.85757 -0.0544,0.34378 c -0.005,0.0327 -0.2334,-0.21405 -0.31832,-0.30281 l -0.31153,-0.34363 0.38629,-0.0434 z"
         sodipodi:nodetypes="ccccccccc" />
      <path
         id="path130"
         style="opacity:1;stroke-width:3.98327;stroke-linecap:square;stroke-dashoffset:29.6323;paint-order:stroke markers fill"
         d="m 134.86148,190.66897 0.0296,0.22606 0.0296,0.2261 -4.09925,0.5354 -0.2473,0.24492 c -0.0234,0.0234 -0.0615,-0.31067 -0.0774,-0.43247 l -0.0477,-0.46136 0.33706,0.19363 z"
         sodipodi:nodetypes="ccccccccc" />
      <path
         id="path131"
         style="opacity:1;stroke-width:3.98327;stroke-linecap:square;stroke-dashoffset:29.6323;paint-order:stroke markers fill"
         d="m 134.62562,193.62835 -0.0801,0.21345 -0.0801,0.2135 -3.87014,-1.45345 -0.33338,0.1 c -0.0317,0.01 0.0917,-0.30313 0.13491,-0.41812 l 0.17467,-0.42968 0.20655,0.3293 z"
         sodipodi:nodetypes="ccccccccc" />
      <path
         id="path132"
         style="opacity:1;stroke-width:3.98327;stroke-linecap:square;stroke-dashoffset:29.6323;paint-order:stroke markers fill"
         d="m 133.19771,195.99254 -0.15837,0.16399 -0.15839,0.16404 -2.97311,-2.87247 -0.34566,-0.0408 c -0.033,-0.003 0.20467,-0.24168 0.29004,-0.33001 l 0.33112,-0.32479 0.0586,0.38427 z"
         sodipodi:nodetypes="ccccccccc" />
      <path
         id="path133"
         style="opacity:1;stroke-width:3.98327;stroke-linecap:square;stroke-dashoffset:29.6323;paint-order:stroke markers fill"
         d="m 130.01369,197.79126 -0.22557,0.033 -0.22563,0.033 -0.59773,-4.09062 -0.24866,-0.24354 c -0.0243,-0.0225 0.3097,-0.0662 0.43126,-0.0839 l 0.46058,-0.0547 -0.18847,0.33997 z"
         sodipodi:nodetypes="ccccccccc" />
      <path
         id="path134"
         style="opacity:1;stroke-width:3.98327;stroke-linecap:square;stroke-dashoffset:29.6323;paint-order:stroke markers fill"
         d="m 127.84095,197.80722 -0.22522,-0.0353 -0.22527,-0.0353 0.6425,-4.08383 -0.16522,-0.30634 c -0.0165,-0.0287 0.31539,0.0286 0.43674,0.0477 l 0.45607,0.0844 -0.28082,0.26876 z"
         sodipodi:nodetypes="ccccccccc" />
      <path
         id="path135"
         style="opacity:1;stroke-width:3.98327;stroke-linecap:square;stroke-dashoffset:29.6323;paint-order:stroke markers fill"
         d="m 125.49576,197.05219 -0.19275,-0.12172 -0.19281,-0.12173 2.20926,-3.49423 -0.0302,-0.34675 c -0.004,-0.0328 0.27819,0.15133 0.38202,0.21698 l 0.38521,0.25833 -0.36438,0.13537 z"
         sodipodi:nodetypes="ccccccccc" />
      <path
         id="path136"
         style="opacity:1;stroke-width:3.98327;stroke-linecap:square;stroke-dashoffset:29.6323;paint-order:stroke markers fill"
         d="m 124.10655,195.818 -0.15749,-0.16482 -0.15754,-0.16485 2.99055,-2.85431 0.0548,-0.34373 c 0.004,-0.0328 0.2332,0.21427 0.31801,0.30313 l 0.31108,0.34402 -0.38633,0.043 z"
         sodipodi:nodetypes="ccccccccc" />
      <path
         id="path137"
         style="opacity:1;stroke-width:3.98327;stroke-linecap:square;stroke-dashoffset:29.6323;paint-order:stroke markers fill"
         d="m 122.46587,192.82053 0.049,0.22266 0.049,0.2227 4.03719,-0.88969 0.31583,0.14628 c 0.03,0.0144 -0.0478,-0.31307 -0.0742,-0.43303 l -0.11195,-0.45011 -0.25118,0.29666 z"
         sodipodi:nodetypes="ccccccccc" />
      <path
         id="path138"
         style="opacity:1;stroke-width:3.98327;stroke-linecap:square;stroke-dashoffset:29.6323;paint-order:stroke markers fill"
         d="m 122.52227,190.34314 -0.0416,0.22417 -0.0416,0.22419 4.06541,0.7503 0.23409,0.25758 c 0.022,0.0249 0.0778,-0.307 0.10003,-0.4278 l 0.0718,-0.45822 -0.34677,0.17562 z"
         sodipodi:nodetypes="ccccccccc" />
      <path
         id="path139"
         style="opacity:1;stroke-width:3.98327;stroke-linecap:square;stroke-dashoffset:29.6323;paint-order:stroke markers fill"
         d="m 123.81974,187.79471 -0.12877,0.18814 -0.12887,0.18813 3.41341,2.3322 0.10974,0.3303 c 0.01,0.0317 0.19545,-0.2492 0.26469,-0.35065 l 0.25119,-0.3899 -0.38818,0.0202 z"
         sodipodi:nodetypes="ccccccccc" />
      <path
         id="path140"
         style="opacity:1;stroke-width:3.98327;stroke-linecap:square;stroke-dashoffset:29.6323;paint-order:stroke markers fill"
         d="m 125.91686,186.08813 -0.19907,0.11115 -0.19914,0.11109 2.01832,3.60789 -0.0487,0.34464 c -0.006,0.0328 0.28595,-0.13615 0.39311,-0.19617 l 0.3985,-0.23731 -0.35659,-0.15472 z"
         sodipodi:nodetypes="ccccccccc" />
      <path
         d="m 125.72966,183.06937 h 0.29722 v 0.9288 h -0.29722 z m 0.29722,0 h 0.59443 v 0.1813 h -0.59443 z m 0,0.36112 h 0.31951 v 0.1813 h -0.31951 z m 0.72967,-0.17536 h 0.29721 v 0.74304 h -0.29721 z m -0.001,-0.17387 q 0,-0.0624 0.0431,-0.10552 0.0431,-0.0431 0.10551,-0.0431 0.0624,0 0.10551,0.0431 0.0431,0.0431 0.0431,0.10552 0,0.0624 -0.0431,0.10551 -0.0431,0.0431 -0.10551,0.0431 -0.0624,0 -0.10551,-0.0431 -0.0431,-0.0431 -0.0431,-0.10551 z m 0.73264,0.48 q 0.0996,0.004 0.15753,0.001 0.058,-0.003 0.0877,-0.0193 0.0297,-0.0163 0.0371,-0.049 0.009,-0.0327 0.0119,-0.0892 0.001,-0.0594 -0.0223,-0.0907 -0.0223,-0.0312 -0.0639,-0.0446 -0.0416,-0.0134 -0.0966,-0.0134 -0.0535,-0.001 -0.11146,-0.001 z m -0.29721,-0.49189 h 0.59443 q 0.0951,0.009 0.16199,0.058 0.0669,0.0476 0.10254,0.11591 0.0371,0.0684 0.0416,0.14861 0.004,0.0788 -0.0282,0.14861 -0.0312,0.0698 -0.10105,0.12186 -0.0684,0.052 -0.17685,0.0654 h -0.29276 l -0.004,0.27046 h -0.29721 z m 0.49486,0.58254 0.29574,-0.004 0.0907,0.35071 h -0.29722 z m 0.54689,-0.58254 h 0.29721 v 0.9288 h -0.29721 z m 0.29721,0 h 0.59444 v 0.1813 h -0.59444 z m 0,0.7475 h 0.59444 v 0.1813 h -0.59444 z m 0,-0.38638 h 0.31951 v 0.1813 h -0.31951 z m 0.72373,-0.38787 h 0.29573 l -0.003,0.95555 h -0.29573 z m 0.20359,0.77128 h 0.59444 v 0.1813 h -0.59444 z m 0.71333,-0.77128 h 0.29573 l -0.003,0.95555 h -0.29574 z m 0.20359,0.77128 h 0.59444 v 0.1813 h -0.59444 z m 0.68063,-0.55877 h 0.29722 v 0.74304 h -0.29722 z m -0.001,-0.17387 q 0,-0.0624 0.0431,-0.10552 0.0431,-0.0431 0.10551,-0.0431 0.0624,0 0.10552,0.0431 0.0431,0.0431 0.0431,0.10552 0,0.0624 -0.0431,0.10551 -0.0431,0.0431 -0.10552,0.0431 -0.0624,0 -0.10551,-0.0431 -0.0431,-0.0431 -0.0431,-0.10551 z"
         id="text1"
         style="font-size:1.48609px;line-height:0;font-family:Pirelli;-inkscape-font-specification:Pirelli;fill:#d64751;fill-opacity:1;stroke-width:0.185914;stroke-linecap:square;stroke-dashoffset:29.6323;paint-order:stroke markers fill"
         aria-label="Firelli" />
      <path
         style="fill:none;fill-opacity:1;stroke:#d64751;stroke-width:0.709;stroke-linecap:square;stroke-dasharray:none;stroke-dashoffset:29.6323;stroke-opacity:1;paint-order:stroke markers fill"
         d="m 123.27566,198.18471 c -4.20214,-3.61115 -3.83658,-9.91487 -0.28842,-12.6624"
         id="path1"
         sodipodi:nodetypes="cc" />
      <path
         style="fill:none;fill-opacity:1;stroke:#d64751;stroke-width:0.709;stroke-linecap:square;stroke-dasharray:none;stroke-dashoffset:29.6323;stroke-opacity:1;paint-order:stroke markers fill"
         d="m 134.1167,198.3718 c 4.20214,-3.61115 3.83658,-9.91487 0.28842,-12.6624"
         id="path2"
         sodipodi:nodetypes="cc" />
      <path
         d="m 126.24996,199.49855 h -0.41525 q -0.0868,0.011 -0.14842,0.0568 -0.0616,0.0474 -0.10104,0.11684 -0.0379,0.0695 -0.0537,0.15473 -0.0158,0.0853 -0.0111,0.1721 0.005,0.0884 0.0284,0.1721 0.0253,0.0853 0.0679,0.15157 0.0426,0.0679 0.10263,0.11052 0.06,0.0442 0.13579,0.0521 h 0.39472 l 0.002,-0.25105 q -0.0695,0.006 -0.13737,0 -0.0679,-0.005 -0.12315,-0.03 -0.0553,-0.0253 -0.0916,-0.0711 -0.0347,-0.0458 -0.0395,-0.11842 -0.005,-0.0963 0.0174,-0.15315 0.0237,-0.0553 0.0726,-0.0789 0.0505,-0.0237 0.12631,-0.0221 0.0758,0.003 0.17368,0.0221 z m -0.35999,0.2842 q 0.0979,-0.0189 0.17368,-0.0221 0.0758,-0.002 0.12473,0.0221 0.0505,0.0237 0.0726,0.0789 0.0237,0.0568 0.019,0.15315 -0.005,0.0726 -0.0411,0.11842 -0.0347,0.0458 -0.09,0.0711 -0.0553,0.0253 -0.12315,0.03 -0.0679,0.006 -0.13737,0 l 0.002,0.25105 h 0.39472 q 0.0758,-0.008 0.13579,-0.0521 0.06,-0.0426 0.10263,-0.11052 0.0426,-0.0663 0.0663,-0.15157 0.0253,-0.0837 0.03,-0.1721 0.005,-0.0868 -0.0111,-0.1721 -0.0158,-0.0853 -0.0553,-0.15473 -0.0379,-0.0695 -0.0995,-0.11684 -0.0616,-0.0458 -0.14842,-0.0568 h -0.41525 z m 1.68152,0.4263 v 0.27315 h 0.92049 v -0.27315 z m -0.0474,-0.70734 v 0.25262 h 0.96786 v -0.25262 z m 0,0 v 0.25262 l 0.96786,0.72787 v -0.27315 z m 1.09102,0.98365 h 0.31577 v -0.98681 h -0.31577 z m 0.31577,0 h 0.63156 v -0.19263 h -0.63156 z m 0,-0.79418 h 0.63156 v -0.19263 h -0.63156 z m 0,0.41051 h 0.33947 v -0.19263 h -0.33947 z m 1.10207,-0.13894 q 0.10578,-0.005 0.16736,-0.002 0.0616,0.003 0.0932,0.0205 0.0316,0.0174 0.0395,0.0521 0.009,0.0347 0.0126,0.0947 0.002,0.0632 -0.0237,0.0963 -0.0237,0.0332 -0.0679,0.0474 -0.0442,0.0142 -0.10262,0.0142 -0.0568,0.002 -0.11842,0.002 z m -0.31578,0.52261 h 0.63156 q 0.10105,-0.009 0.1721,-0.0616 0.0711,-0.0505 0.10894,-0.12315 0.0395,-0.0726 0.0442,-0.15789 0.005,-0.0837 -0.03,-0.15789 -0.0332,-0.0742 -0.10736,-0.12947 -0.0726,-0.0553 -0.18789,-0.0695 h -0.31104 l -0.005,-0.28736 h -0.31578 z m 0.52577,-0.61893 0.3142,0.005 0.0963,-0.37262 h -0.31577 z m 1.26311,-0.36788 h -0.41524 q -0.0868,0.011 -0.14842,0.0568 -0.0616,0.0474 -0.10105,0.11684 -0.0379,0.0695 -0.0537,0.15473 -0.0158,0.0853 -0.011,0.1721 0.005,0.0884 0.0284,0.1721 0.0253,0.0853 0.0679,0.15157 0.0426,0.0679 0.10263,0.11052 0.06,0.0442 0.13578,0.0521 h 0.39472 l 0.002,-0.25105 q -0.0695,0.006 -0.13736,0 -0.0679,-0.005 -0.12315,-0.03 -0.0553,-0.0253 -0.0916,-0.0711 -0.0347,-0.0458 -0.0395,-0.11842 -0.005,-0.0963 0.0174,-0.15315 0.0237,-0.0553 0.0726,-0.0789 0.0505,-0.0237 0.12632,-0.0221 0.0758,0.003 0.17367,0.0221 z m -0.35998,0.2842 q 0.0979,-0.0189 0.17367,-0.0221 0.0758,-0.002 0.12474,0.0221 0.0505,0.0237 0.0726,0.0789 0.0237,0.0568 0.0189,0.15315 -0.005,0.0726 -0.041,0.11842 -0.0347,0.0458 -0.09,0.0711 -0.0553,0.0253 -0.12316,0.03 -0.0679,0.006 -0.13736,0 l 0.002,0.25105 h 0.39472 q 0.0758,-0.008 0.13578,-0.0521 0.06,-0.0426 0.10263,-0.11052 0.0426,-0.0663 0.0663,-0.15157 0.0253,-0.0837 0.03,-0.1721 0.005,-0.0868 -0.011,-0.1721 -0.0158,-0.0853 -0.0553,-0.15473 -0.0379,-0.0695 -0.0995,-0.11684 -0.0616,-0.0458 -0.14841,-0.0568 h -0.41525 z"
         id="text2"
         style="font-size:1.57889px;line-height:0;font-family:Pirelli;-inkscape-font-specification:Pirelli;fill:#d64751;fill-opacity:1;stroke-width:0.0358261;stroke-linecap:square;stroke-dashoffset:29.6323;paint-order:stroke markers fill"
         aria-label="o zero" />
      <text
         xml:space="preserve"
         style="font-style:normal;font-variant:normal;font-weight:normal;font-stretch:normal;font-size:0.563422px;line-height:0;font-family:Pirelli;-inkscape-font-specification:Pirelli;text-decoration-color:#000000;writing-mode:lr-tb;direction:ltr;fill:#000000;fill-opacity:1;stroke:none;stroke-width:0.0127845;stroke-linecap:square;stroke-dasharray:none;stroke-dashoffset:29.6323;stroke-opacity:1;paint-order:stroke markers fill"
         x="127.537"
         y="191.54958"
         id="text3"><tspan
           sodipodi:role="line"
           id="tspan2"
           style="fill:#000000;fill-opacity:1;stroke-width:0.0127845"
           x="127.537"
           y="191.54958">Firelli</tspan></text>
      <text
         xml:space="preserve"
         style="font-style:normal;font-variant:normal;font-weight:normal;font-stretch:normal;font-size:1.04856px;line-height:0;font-family:Pirelli;-inkscape-font-specification:Pirelli;text-decoration-color:#000000;writing-mode:lr-tb;direction:ltr;fill:none;fill-opacity:1;stroke:#000000;stroke-width:0.0480545;stroke-linecap:square;stroke-dasharray:none;stroke-dashoffset:29.6323;stroke-opacity:1;paint-order:stroke markers fill"
         x="127.93492"
         y="192.51694"
         id="text4"><tspan
           sodipodi:role="line"
           id="tspan3"
           style="fill:none;stroke:#000000;stroke-width:0.0480545;stroke-dasharray:none;stroke-opacity:1"
           x="127.93492"
           y="192.51694">150</tspan></text>
    </g>
    <g
       id="g93"
       inkscape:label="TIRE"
       transform="matrix(0.4477862,-0.08252415,0.08252415,0.4477862,1.1142825,66.405447)">
      <path
         id="path73"
         style="opacity:1;fill:#111111;stroke-width:2.19122;stroke-linecap:square;stroke-dashoffset:29.6323;paint-order:stroke markers fill"
         d="m 128.62305,181.91028 c -2.45475,0.0373 -4.88983,0.97656 -6.67167,2.67651 -1.90623,1.77323 -3.03031,4.3344 -3.0838,6.93596 -0.0533,2.56802 0.94965,5.12927 2.72839,6.98371 1.77875,1.85514 4.29983,2.9545 6.86988,3.00855 2.56801,0.05 5.13251,-0.94714 6.9858,-2.72999 1.8552,-1.77875 2.95436,-4.29985 3.00868,-6.86988 0.0497,-2.56758 -0.94755,-5.13098 -2.73013,-6.98385 -1.77863,-1.85405 -4.29941,-2.95835 -6.87001,-3.0089 -0.0788,0.002 -0.15844,-0.0232 -0.23714,-0.0121 z m 1.07226,3.92774 c 2.61222,0.44985 4.7702,2.77916 4.90066,5.44336 0.28853,2.86402 -1.84075,5.70347 -4.66363,6.25394 -2.729,0.6562 -5.76691,-0.9365 -6.77904,-3.55674 -1.11438,-2.5728 -0.0816,-5.83889 2.32386,-7.28949 1.23576,-0.80279 2.7687,-1.07369 4.21815,-0.85107 z" />
      <path
         id="path74"
         style="opacity:1;stroke-width:3.98327;stroke-linecap:square;stroke-dashoffset:29.6323;paint-order:stroke markers fill"
         d="m 128.40817,185.50943 h 0.22801 0.22802 v 4.13406 l 0.21084,0.27694 c 0.0204,0.026 -0.316,0.0207 -0.43886,0.0207 l -0.46366,-0.0124 0.23565,-0.30916 z"
         sodipodi:nodetypes="ccccccccc" />
      <circle
         style="opacity:1;fill:#000000;fill-opacity:1;stroke:none;stroke-width:6.08478;stroke-linecap:square;stroke-dashoffset:29.6323;paint-order:stroke markers fill"
         id="circle74"
         cx="128.66383"
         cy="191.71214"
         r="1.9293518" />
      <circle
         style="opacity:1;fill:#d9d9d9;fill-opacity:1;stroke:none;stroke-width:4.68344;stroke-linecap:square;stroke-dashoffset:29.6323;paint-order:stroke markers fill"
         id="circle75"
         cx="128.66383"
         cy="191.71214"
         r="1.4850162" />
      <path
         id="path75"
         style="opacity:1;fill:#000000;fill-opacity:1;stroke-width:1.82227;stroke-linecap:square;stroke-dashoffset:29.6323;paint-order:stroke markers fill"
         d="m 128.31137,184.45412 c -3.16391,0.12709 -6.05992,2.54032 -6.7312,5.64028 -0.80784,3.33437 1.09683,7.09941 4.31653,8.33971 2.97956,1.26879 6.73131,0.24297 8.62098,-2.39575 1.16626,-1.59562 1.70016,-3.83145 1.26397,-5.83089 -0.59167,-2.94585 -3.18056,-5.3215 -6.15738,-5.6921 -0.43415,-0.0688 -0.8744,-0.0741 -1.3129,-0.0612 z m 0.59123,1.42935 c 3.1247,0.0489 5.844,3.01904 5.59461,6.14157 -0.10142,3.02198 -2.89385,5.65622 -5.92596,5.53201 -2.93675,-0.0165 -5.64038,-2.53764 -5.72798,-5.49861 -0.19637,-2.816 1.91678,-5.61655 4.73158,-6.06207 0.43643,-0.0861 0.88352,-0.11365 1.32775,-0.1129 z" />
      <path
         id="path76"
         style="opacity:1;stroke-width:3.98327;stroke-linecap:square;stroke-dashoffset:29.6323;paint-order:stroke markers fill"
         d="m 130.76813,185.89076 0.21079,0.0869 0.21081,0.0869 -1.57631,3.82174 0.0893,0.33641 c 0.009,0.0318 -0.30002,-0.10136 -0.41359,-0.14819 l -0.42391,-0.18825 0.33572,-0.19596 z"
         sodipodi:nodetypes="ccccccccc" />
      <path
         id="path77"
         style="opacity:1;stroke-width:3.98327;stroke-linecap:square;stroke-dashoffset:29.6323;paint-order:stroke markers fill"
         d="m 133.12896,187.34863 0.15762,0.16473 0.15765,0.16475 -2.98743,2.85757 -0.0544,0.34378 c -0.005,0.0327 -0.2334,-0.21405 -0.31832,-0.30281 l -0.31153,-0.34363 0.38629,-0.0434 z"
         sodipodi:nodetypes="ccccccccc" />
      <path
         id="path78"
         style="opacity:1;stroke-width:3.98327;stroke-linecap:square;stroke-dashoffset:29.6323;paint-order:stroke markers fill"
         d="m 134.86148,190.66897 0.0296,0.22606 0.0296,0.2261 -4.09925,0.5354 -0.2473,0.24492 c -0.0234,0.0234 -0.0615,-0.31067 -0.0774,-0.43247 l -0.0477,-0.46136 0.33706,0.19363 z"
         sodipodi:nodetypes="ccccccccc" />
      <path
         id="path79"
         style="opacity:1;stroke-width:3.98327;stroke-linecap:square;stroke-dashoffset:29.6323;paint-order:stroke markers fill"
         d="m 134.62562,193.62835 -0.0801,0.21345 -0.0801,0.2135 -3.87014,-1.45345 -0.33338,0.1 c -0.0317,0.01 0.0917,-0.30313 0.13491,-0.41812 l 0.17467,-0.42968 0.20655,0.3293 z"
         sodipodi:nodetypes="ccccccccc" />
      <path
         id="path80"
         style="opacity:1;stroke-width:3.98327;stroke-linecap:square;stroke-dashoffset:29.6323;paint-order:stroke markers fill"
         d="m 133.19771,195.99254 -0.15837,0.16399 -0.15839,0.16404 -2.97311,-2.87247 -0.34566,-0.0408 c -0.033,-0.003 0.20467,-0.24168 0.29004,-0.33001 l 0.33112,-0.32479 0.0586,0.38427 z"
         sodipodi:nodetypes="ccccccccc" />
      <path
         id="path81"
         style="opacity:1;stroke-width:3.98327;stroke-linecap:square;stroke-dashoffset:29.6323;paint-order:stroke markers fill"
         d="m 130.01369,197.79126 -0.22557,0.033 -0.22563,0.033 -0.59773,-4.09062 -0.24866,-0.24354 c -0.0243,-0.0225 0.3097,-0.0662 0.43126,-0.0839 l 0.46058,-0.0547 -0.18847,0.33997 z"
         sodipodi:nodetypes="ccccccccc" />
      <path
         id="path82"
         style="opacity:1;stroke-width:3.98327;stroke-linecap:square;stroke-dashoffset:29.6323;paint-order:stroke markers fill"
         d="m 127.84095,197.80722 -0.22522,-0.0353 -0.22527,-0.0353 0.6425,-4.08383 -0.16522,-0.30634 c -0.0165,-0.0287 0.31539,0.0286 0.43674,0.0477 l 0.45607,0.0844 -0.28082,0.26876 z"
         sodipodi:nodetypes="ccccccccc" />
      <path
         id="path83"
         style="opacity:1;stroke-width:3.98327;stroke-linecap:square;stroke-dashoffset:29.6323;paint-order:stroke markers fill"
         d="m 125.49576,197.05219 -0.19275,-0.12172 -0.19281,-0.12173 2.20926,-3.49423 -0.0302,-0.34675 c -0.004,-0.0328 0.27819,0.15133 0.38202,0.21698 l 0.38521,0.25833 -0.36438,0.13537 z"
         sodipodi:nodetypes="ccccccccc" />
      <path
         id="path84"
         style="opacity:1;stroke-width:3.98327;stroke-linecap:square;stroke-dashoffset:29.6323;paint-order:stroke markers fill"
         d="m 124.10655,195.818 -0.15749,-0.16482 -0.15754,-0.16485 2.99055,-2.85431 0.0548,-0.34373 c 0.004,-0.0328 0.2332,0.21427 0.31801,0.30313 l 0.31108,0.34402 -0.38633,0.043 z"
         sodipodi:nodetypes="ccccccccc" />
      <path
         id="path85"
         style="opacity:1;stroke-width:3.98327;stroke-linecap:square;stroke-dashoffset:29.6323;paint-order:stroke markers fill"
         d="m 122.46587,192.82053 0.049,0.22266 0.049,0.2227 4.03719,-0.88969 0.31583,0.14628 c 0.03,0.0144 -0.0478,-0.31307 -0.0742,-0.43303 l -0.11195,-0.45011 -0.25118,0.29666 z"
         sodipodi:nodetypes="ccccccccc" />
      <path
         id="path86"
         style="opacity:1;stroke-width:3.98327;stroke-linecap:square;stroke-dashoffset:29.6323;paint-order:stroke markers fill"
         d="m 122.52227,190.34314 -0.0416,0.22417 -0.0416,0.22419 4.06541,0.7503 0.23409,0.25758 c 0.022,0.0249 0.0778,-0.307 0.10003,-0.4278 l 0.0718,-0.45822 -0.34677,0.17562 z"
         sodipodi:nodetypes="ccccccccc" />
      <path
         id="path87"
         style="opacity:1;stroke-width:3.98327;stroke-linecap:square;stroke-dashoffset:29.6323;paint-order:stroke markers fill"
         d="m 123.81974,187.79471 -0.12877,0.18814 -0.12887,0.18813 3.41341,2.3322 0.10974,0.3303 c 0.01,0.0317 0.19545,-0.2492 0.26469,-0.35065 l 0.25119,-0.3899 -0.38818,0.0202 z"
         sodipodi:nodetypes="ccccccccc" />
      <path
         id="path88"
         style="opacity:1;stroke-width:3.98327;stroke-linecap:square;stroke-dashoffset:29.6323;paint-order:stroke markers fill"
         d="m 125.91686,186.08813 -0.19907,0.11115 -0.19914,0.11109 2.01832,3.60789 -0.0487,0.34464 c -0.006,0.0328 0.28595,-0.13615 0.39311,-0.19617 l 0.3985,-0.23731 -0.35659,-0.15472 z"
         sodipodi:nodetypes="ccccccccc" />
      <path
         d="m 125.72966,183.06937 h 0.29722 v 0.9288 h -0.29722 z m 0.29722,0 h 0.59443 v 0.1813 h -0.59443 z m 0,0.36112 h 0.31951 v 0.1813 h -0.31951 z m 0.72967,-0.17536 h 0.29721 v 0.74304 h -0.29721 z m -0.001,-0.17387 q 0,-0.0624 0.0431,-0.10552 0.0431,-0.0431 0.10551,-0.0431 0.0624,0 0.10551,0.0431 0.0431,0.0431 0.0431,0.10552 0,0.0624 -0.0431,0.10551 -0.0431,0.0431 -0.10551,0.0431 -0.0624,0 -0.10551,-0.0431 -0.0431,-0.0431 -0.0431,-0.10551 z m 0.73264,0.48 q 0.0996,0.004 0.15753,0.001 0.058,-0.003 0.0877,-0.0193 0.0297,-0.0163 0.0371,-0.049 0.009,-0.0327 0.0119,-0.0892 0.001,-0.0594 -0.0223,-0.0907 -0.0223,-0.0312 -0.0639,-0.0446 -0.0416,-0.0134 -0.0966,-0.0134 -0.0535,-0.001 -0.11146,-0.001 z m -0.29721,-0.49189 h 0.59443 q 0.0951,0.009 0.16199,0.058 0.0669,0.0476 0.10254,0.11591 0.0371,0.0684 0.0416,0.14861 0.004,0.0788 -0.0282,0.14861 -0.0312,0.0698 -0.10105,0.12186 -0.0684,0.052 -0.17685,0.0654 h -0.29276 l -0.004,0.27046 h -0.29721 z m 0.49486,0.58254 0.29574,-0.004 0.0907,0.35071 h -0.29722 z m 0.54689,-0.58254 h 0.29721 v 0.9288 h -0.29721 z m 0.29721,0 h 0.59444 v 0.1813 h -0.59444 z m 0,0.7475 h 0.59444 v 0.1813 h -0.59444 z m 0,-0.38638 h 0.31951 v 0.1813 h -0.31951 z m 0.72373,-0.38787 h 0.29573 l -0.003,0.95555 h -0.29573 z m 0.20359,0.77128 h 0.59444 v 0.1813 h -0.59444 z m 0.71333,-0.77128 h 0.29573 l -0.003,0.95555 h -0.29574 z m 0.20359,0.77128 h 0.59444 v 0.1813 h -0.59444 z m 0.68063,-0.55877 h 0.29722 v 0.74304 h -0.29722 z m -0.001,-0.17387 q 0,-0.0624 0.0431,-0.10552 0.0431,-0.0431 0.10551,-0.0431 0.0624,0 0.10552,0.0431 0.0431,0.0431 0.0431,0.10552 0,0.0624 -0.0431,0.10551 -0.0431,0.0431 -0.10552,0.0431 -0.0624,0 -0.10551,-0.0431 -0.0431,-0.0431 -0.0431,-0.10551 z"
         id="path89"
         style="font-size:1.48609px;line-height:0;font-family:Pirelli;-inkscape-font-specification:Pirelli;fill:#cdae4f;fill-opacity:1;stroke-width:0.185914;stroke-linecap:square;stroke-dashoffset:29.6323;paint-order:stroke markers fill"
         aria-label="Firelli" />
      <path
         style="fill:none;fill-opacity:1;stroke:#cdae4f;stroke-width:0.709;stroke-linecap:square;stroke-dasharray:none;stroke-dashoffset:29.6323;stroke-opacity:1;paint-order:stroke markers fill"
         d="m 123.27566,198.18471 c -4.20214,-3.61115 -3.83658,-9.91487 -0.28842,-12.6624"
         id="path90"
         sodipodi:nodetypes="cc" />
      <path
         style="fill:none;fill-opacity:1;stroke:#cdae4f;stroke-width:0.709;stroke-linecap:square;stroke-dasharray:none;stroke-dashoffset:29.6323;stroke-opacity:1;paint-order:stroke markers fill"
         d="m 134.1167,198.3718 c 4.20214,-3.61115 3.83658,-9.91487 0.28842,-12.6624"
         id="path91"
         sodipodi:nodetypes="cc" />
      <path
         d="m 126.24996,199.49855 h -0.41525 q -0.0868,0.011 -0.14842,0.0568 -0.0616,0.0474 -0.10104,0.11684 -0.0379,0.0695 -0.0537,0.15473 -0.0158,0.0853 -0.0111,0.1721 0.005,0.0884 0.0284,0.1721 0.0253,0.0853 0.0679,0.15157 0.0426,0.0679 0.10263,0.11052 0.06,0.0442 0.13579,0.0521 h 0.39472 l 0.002,-0.25105 q -0.0695,0.006 -0.13737,0 -0.0679,-0.005 -0.12315,-0.03 -0.0553,-0.0253 -0.0916,-0.0711 -0.0347,-0.0458 -0.0395,-0.11842 -0.005,-0.0963 0.0174,-0.15315 0.0237,-0.0553 0.0726,-0.0789 0.0505,-0.0237 0.12631,-0.0221 0.0758,0.003 0.17368,0.0221 z m -0.35999,0.2842 q 0.0979,-0.0189 0.17368,-0.0221 0.0758,-0.002 0.12473,0.0221 0.0505,0.0237 0.0726,0.0789 0.0237,0.0568 0.019,0.15315 -0.005,0.0726 -0.0411,0.11842 -0.0347,0.0458 -0.09,0.0711 -0.0553,0.0253 -0.12315,0.03 -0.0679,0.006 -0.13737,0 l 0.002,0.25105 h 0.39472 q 0.0758,-0.008 0.13579,-0.0521 0.06,-0.0426 0.10263,-0.11052 0.0426,-0.0663 0.0663,-0.15157 0.0253,-0.0837 0.03,-0.1721 0.005,-0.0868 -0.0111,-0.1721 -0.0158,-0.0853 -0.0553,-0.15473 -0.0379,-0.0695 -0.0995,-0.11684 -0.0616,-0.0458 -0.14842,-0.0568 h -0.41525 z m 1.68152,0.4263 v 0.27315 h 0.92049 v -0.27315 z m -0.0474,-0.70734 v 0.25262 h 0.96786 v -0.25262 z m 0,0 v 0.25262 l 0.96786,0.72787 v -0.27315 z m 1.09102,0.98365 h 0.31577 v -0.98681 h -0.31577 z m 0.31577,0 h 0.63156 v -0.19263 h -0.63156 z m 0,-0.79418 h 0.63156 v -0.19263 h -0.63156 z m 0,0.41051 h 0.33947 v -0.19263 h -0.33947 z m 1.10207,-0.13894 q 0.10578,-0.005 0.16736,-0.002 0.0616,0.003 0.0932,0.0205 0.0316,0.0174 0.0395,0.0521 0.009,0.0347 0.0126,0.0947 0.002,0.0632 -0.0237,0.0963 -0.0237,0.0332 -0.0679,0.0474 -0.0442,0.0142 -0.10262,0.0142 -0.0568,0.002 -0.11842,0.002 z m -0.31578,0.52261 h 0.63156 q 0.10105,-0.009 0.1721,-0.0616 0.0711,-0.0505 0.10894,-0.12315 0.0395,-0.0726 0.0442,-0.15789 0.005,-0.0837 -0.03,-0.15789 -0.0332,-0.0742 -0.10736,-0.12947 -0.0726,-0.0553 -0.18789,-0.0695 h -0.31104 l -0.005,-0.28736 h -0.31578 z m 0.52577,-0.61893 0.3142,0.005 0.0963,-0.37262 h -0.31577 z m 1.26311,-0.36788 h -0.41524 q -0.0868,0.011 -0.14842,0.0568 -0.0616,0.0474 -0.10105,0.11684 -0.0379,0.0695 -0.0537,0.15473 -0.0158,0.0853 -0.011,0.1721 0.005,0.0884 0.0284,0.1721 0.0253,0.0853 0.0679,0.15157 0.0426,0.0679 0.10263,0.11052 0.06,0.0442 0.13578,0.0521 h 0.39472 l 0.002,-0.25105 q -0.0695,0.006 -0.13736,0 -0.0679,-0.005 -0.12315,-0.03 -0.0553,-0.0253 -0.0916,-0.0711 -0.0347,-0.0458 -0.0395,-0.11842 -0.005,-0.0963 0.0174,-0.15315 0.0237,-0.0553 0.0726,-0.0789 0.0505,-0.0237 0.12632,-0.0221 0.0758,0.003 0.17367,0.0221 z m -0.35998,0.2842 q 0.0979,-0.0189 0.17367,-0.0221 0.0758,-0.002 0.12474,0.0221 0.0505,0.0237 0.0726,0.0789 0.0237,0.0568 0.0189,0.15315 -0.005,0.0726 -0.041,0.11842 -0.0347,0.0458 -0.09,0.0711 -0.0553,0.0253 -0.12316,0.03 -0.0679,0.006 -0.13736,0 l 0.002,0.25105 h 0.39472 q 0.0758,-0.008 0.13578,-0.0521 0.06,-0.0426 0.10263,-0.11052 0.0426,-0.0663 0.0663,-0.15157 0.0253,-0.0837 0.03,-0.1721 0.005,-0.0868 -0.011,-0.1721 -0.0158,-0.0853 -0.0553,-0.15473 -0.0379,-0.0695 -0.0995,-0.11684 -0.0616,-0.0458 -0.14841,-0.0568 h -0.41525 z"
         id="path92"
         style="font-size:1.57889px;line-height:0;font-family:Pirelli;-inkscape-font-specification:Pirelli;fill:#cdae4f;fill-opacity:1;stroke-width:0.0358261;stroke-linecap:square;stroke-dashoffset:29.6323;paint-order:stroke markers fill"
         aria-label="o zero" />
      <text
         xml:space="preserve"
         style="font-style:normal;font-variant:normal;font-weight:normal;font-stretch:normal;font-size:0.563422px;line-height:0;font-family:Pirelli;-inkscape-font-specification:Pirelli;text-decoration-color:#000000;writing-mode:lr-tb;direction:ltr;fill:#000000;fill-opacity:1;stroke:none;stroke-width:0.0127845;stroke-linecap:square;stroke-dasharray:none;stroke-dashoffset:29.6323;stroke-opacity:1;paint-order:stroke markers fill"
         x="127.537"
         y="191.54958"
         id="text92"><tspan
           sodipodi:role="line"
           id="tspan92"
           style="fill:#000000;fill-opacity:1;stroke-width:0.0127845"
           x="127.537"
           y="191.54958">Firelli</tspan></text>
      <text
         xml:space="preserve"
         style="font-style:normal;font-variant:normal;font-weight:normal;font-stretch:normal;font-size:1.04856px;line-height:0;font-family:Pirelli;-inkscape-font-specification:Pirelli;text-decoration-color:#000000;writing-mode:lr-tb;direction:ltr;fill:none;fill-opacity:1;stroke:#000000;stroke-width:0.0480545;stroke-linecap:square;stroke-dasharray:none;stroke-dashoffset:29.6323;stroke-opacity:1;paint-order:stroke markers fill"
         x="127.93492"
         y="192.51694"
         id="text93"><tspan
           sodipodi:role="line"
           id="tspan93"
           style="fill:none;stroke:#000000;stroke-width:0.0480545;stroke-dasharray:none;stroke-opacity:1"
           x="127.93492"
           y="192.51694">150</tspan></text>
    </g>
  </g>
  <g
     inkscape:groupmode="layer"
     id="layer2"
     inkscape:label="Layer 2"
     transform="translate(-10.595544,-56.803126)" />
</svg>
