<?xml version="1.0" encoding="UTF-8" standalone="no"?>
<!-- Created with Inkscape (http://www.inkscape.org/) -->

<svg
   width="195.24614mm"
   height="26.127209mm"
   viewBox="0 0 195.24614 26.127209"
   version="1.1"
   id="svg1"
   inkscape:version="1.4.3 (0d15f75042, 2025-12-25)"
   sodipodi:docname="Landscape-Logo.svg"
   xmlns:inkscape="http://www.inkscape.org/namespaces/inkscape"
   xmlns:sodipodi="http://sodipodi.sourceforge.net/DTD/sodipodi-0.dtd"
   xmlns="http://www.w3.org/2000/svg"
   xmlns:svg="http://www.w3.org/2000/svg">
  <sodipodi:namedview
     id="namedview1"
     pagecolor="#9c9c9c"
     bordercolor="#000000"
     borderopacity="1"
     inkscape:showpageshadow="0"
     inkscape:pageopacity="0"
     inkscape:pagecheckerboard="1"
     inkscape:deskcolor="#a1a1a1"
     inkscape:document-units="mm"
     inkscape:zoom="1.2573366"
     inkscape:cx="288.7055"
     inkscape:cy="167.01971"
     inkscape:window-width="1564"
     inkscape:window-height="1372"
     inkscape:window-x="0"
     inkscape:window-y="0"
     inkscape:window-maximized="1"
     inkscape:current-layer="layer1" />
  <defs
     id="defs1" />
  <g
     inkscape:label="Layer 1"
     inkscape:groupmode="layer"
     id="layer1"
     transform="translate(-6.7285313,-88.154309)">
    <g
       id="g5"
       inkscape:label="MOUNTAIN"
       transform="translate(0.83644728,-1.1535182)">
      <path
         style="opacity:0.998712;fill:#888888;fill-opacity:1;stroke:none;stroke-width:3.13301;stroke-linecap:square;stroke-dashoffset:29.6323;paint-order:stroke markers fill"
         d="m 11.889384,107.3201 8.568095,-8.351648 2.845206,-1.833533 c 2.065971,1.310722 2.390955,1.057907 4.53742,2.228866 l 14.864803,8.514465 1.190382,2.23197 -0.06163,2.86249 -0.06389,1.7125 -37.877682,0.42086 z"
         id="path3"
         sodipodi:nodetypes="cccccccccc" />
      <path
         style="opacity:0.998712;fill:#9a9a9a;fill-opacity:1;stroke:none;stroke-width:3.13301;stroke-linecap:square;stroke-dashoffset:29.6323;paint-order:stroke markers fill"
         d="m 22.621395,103.42712 2.314747,-2.84083 3.998199,1.68345 3.472121,4.20864 -8.101616,0.31564 z"
         id="path4"
         sodipodi:nodetypes="cccccc" />
      <path
         style="opacity:0.998712;fill:#b6b6b6;fill-opacity:1;stroke:none;stroke-width:3.13301;stroke-linecap:square;stroke-dashoffset:29.6323;paint-order:stroke markers fill"
         d="m 5.892084,115.10607 3.9981999,-10.73201 3.9982001,5.89209 4.629495,-10.10072 8.206832,6.52338 4.419063,-8.838129 1.473021,2.209529 6.102515,5.36601 3.998201,3.9982 1.052155,5.26079 z"
         id="path1"
         sodipodi:nodetypes="ccccccccccc" />
      <path
         style="opacity:0.998712;fill:#6b6b6b;fill-opacity:1;stroke:none;stroke-width:3.13301;stroke-linecap:square;stroke-dashoffset:29.6323;paint-order:stroke markers fill"
         d="m 5.892084,115.10607 7.785968,-9.46942 4.839927,2.73561 3.998199,-2.73561 3.577337,2.31475 5.471221,-3.15648 1.683453,3.36691 3.577336,-4.20863 2.683002,4.41906 2.788219,1.47302 1.53127,3.86532 -0.05825,1.34287 z"
         id="path2"
         sodipodi:nodetypes="ccccccccccccc" />
      <path
         style="opacity:0.998712;fill:#3b3b3b;fill-opacity:1;stroke:none;stroke-width:3.13301;stroke-linecap:square;stroke-dashoffset:29.6323;paint-order:stroke markers fill"
         d="m 5.8920879,115.10607 5.4712171,-3.89298 2.946042,0.52608 4.629495,-0.73651 5.050358,1.47302 2.735611,-2.6304 3.366905,2.52518 3.472121,0.10522 2.20953,-1.36781 1.473021,1.9991 4.208631,-0.31565 2.314747,2.26215 z"
         id="path5" />
    </g>
    <g
       id="g10"
       inkscape:label="MOUNTAIN"
       transform="translate(158.07938,-1.1535182)">
      <path
         style="opacity:0.998712;fill:#888888;fill-opacity:1;stroke:none;stroke-width:3.13301;stroke-linecap:square;stroke-dashoffset:29.6323;paint-order:stroke markers fill"
         d="m 11.889384,107.3201 8.568095,-8.351648 2.845206,-1.833533 c 2.065971,1.310722 2.390955,1.057907 4.53742,2.228866 l 14.864803,8.514465 1.190382,2.23197 -0.06163,2.86249 -0.06389,1.7125 -37.877682,0.42086 z"
         id="path6"
         sodipodi:nodetypes="cccccccccc" />
      <path
         style="opacity:0.998712;fill:#9a9a9a;fill-opacity:1;stroke:none;stroke-width:3.13301;stroke-linecap:square;stroke-dashoffset:29.6323;paint-order:stroke markers fill"
         d="m 22.621395,103.42712 2.314747,-2.84083 3.998199,1.68345 3.472121,4.20864 -8.101616,0.31564 z"
         id="path7"
         sodipodi:nodetypes="cccccc" />
      <path
         style="opacity:0.998712;fill:#b6b6b6;fill-opacity:1;stroke:none;stroke-width:3.13301;stroke-linecap:square;stroke-dashoffset:29.6323;paint-order:stroke markers fill"
         d="m 5.892084,115.10607 3.9981999,-10.73201 3.9982001,5.89209 4.629495,-10.10072 8.206832,6.52338 4.419063,-8.838129 1.473021,2.209529 6.102515,5.36601 3.998201,3.9982 1.052155,5.26079 z"
         id="path8"
         sodipodi:nodetypes="ccccccccccc" />
      <path
         style="opacity:0.998712;fill:#6b6b6b;fill-opacity:1;stroke:none;stroke-width:3.13301;stroke-linecap:square;stroke-dashoffset:29.6323;paint-order:stroke markers fill"
         d="m 5.892084,115.10607 7.785968,-9.46942 4.839927,2.73561 3.998199,-2.73561 3.577337,2.31475 5.471221,-3.15648 1.683453,3.36691 3.577336,-4.20863 2.683002,4.41906 2.788219,1.47302 1.53127,3.86532 -0.05825,1.34287 z"
         id="path9"
         sodipodi:nodetypes="ccccccccccccc" />
      <path
         style="opacity:0.998712;fill:#3b3b3b;fill-opacity:1;stroke:none;stroke-width:3.13301;stroke-linecap:square;stroke-dashoffset:29.6323;paint-order:stroke markers fill"
         d="m 5.8920879,115.10607 5.4712171,-3.89298 2.946042,0.52608 4.629495,-0.73651 5.050358,1.47302 2.735611,-2.6304 3.366905,2.52518 3.472121,0.10522 2.20953,-1.36781 1.473021,1.9991 4.208631,-0.31565 2.314747,2.26215 z"
         id="path10" />
    </g>
    <path
       d="m 91.605778,95.678914 c 0.807288,0.05686 1.493503,0.226064 2.22467,0.530717 2.876268,1.250551 4.547018,3.524975 4.991944,6.842989 a 7.0471752,7.0471752 0 0 0 1.507918,-0.20257 c -0.764132,-1.65831 -0.523474,-3.798398 0.59686,-5.292181 0.77018,-0.990226 2.14559,-1.870542 3.35587,-2.145605 0.45608,-0.104518 0.91781,-0.142531 1.37304,-0.120923 a 7.0471752,7.0471752 0 0 0 -7.010938,-6.33088 7.0471752,7.0471752 0 0 0 -7.039364,6.718453 z"
       style="opacity:0.998712;fill:#d6d24d;stroke-width:3.13301;stroke-linecap:square;stroke-dashoffset:29.6323;paint-order:stroke markers fill"
       id="path41" />
    <path
       d="m 98.645142,88.154309 a 7.8532662,7.8532662 0 0 0 -7.845516,7.503418 c 0.284213,-0.0038 0.551303,0.0032 0.806152,0.02119 a 7.0471752,7.0471752 0 0 1 7.039364,-6.718453 7.0471752,7.0471752 0 0 1 7.010938,6.33088 c 0.27623,0.01311 0.54993,0.04834 0.81856,0.10387 a 7.8532662,7.8532662 0 0 0 -7.829498,-7.240902 z"
       style="opacity:0.998712;fill:#d6a74d;stroke-width:3.49139;stroke-linecap:square;stroke-dashoffset:29.6323;paint-order:stroke markers fill"
       id="path34" />
    <path
       style="font-size:27.5063px;line-height:0;font-family:Adventure;-inkscape-font-specification:Adventure;opacity:0.998712;fill:#394520;stroke-width:3.133;stroke-linecap:square;stroke-dashoffset:29.6323;paint-order:stroke markers fill"
       d="m 46.189582,113.81392 c -1.457834,-0.52262 -0.962721,-1.89793 -0.962721,-3.21824 0,-2.75063 0.275063,-13.340552 0.357582,-13.973197 0.08252,-0.880202 0.385088,-1.127758 1.48534,-1.292796 1.26529,-0.165038 2.420555,0.08252 2.668111,0.605138 0.137532,0.220051 0.165038,1.155265 0.220051,6.629015 0.02751,3.4933 0.08252,6.38147 0.137531,6.40897 0.02751,0.055 0.962721,0.0825 2.062973,0.0825 2.393048,-0.0275 2.778136,-0.24756 2.833149,2.55809 0,1.37531 0,1.45783 -0.192544,1.73289 -0.440101,0.60514 -0.357582,0.57764 -4.483527,0.60514 -3.328263,0.0275 -3.740857,0 -4.125945,-0.13753 z m 19.226906,0.11003 c -1.292796,-0.4126 -1.347809,-2.72313 -1.567859,-3.82338 -0.357582,-1.65038 -0.715164,-3.10821 -0.797683,-3.21824 -0.110025,-0.16504 -0.22005,-0.19254 -0.660151,-0.19254 -0.302569,0 -0.550126,0.0275 -0.605139,0.11002 -0.02751,0.055 -0.385088,1.54036 -0.74267,3.32827 -0.632645,3.10821 -0.660151,3.21823 -0.907708,3.43828 -0.357581,0.30257 -0.770176,0.38509 -1.787909,0.24756 -2.035466,-0.24756 -2.778136,-0.71516 -2.668111,-1.70539 0.08252,-0.63265 3.355768,-14.083226 3.658338,-14.963427 0.192544,-0.632645 0.330075,-0.852696 0.577632,-1.100252 0.467607,-0.440101 0.632645,-0.52262 1.512847,-0.660152 1.347808,-0.192544 2.475567,-0.110025 3.163224,0.275063 0.687658,0.357582 0.467607,-0.357582 3.548313,11.937738 1.292796,5.08866 1.26529,4.89612 0.660151,5.41874 -0.302569,0.27506 -0.797683,0.4401 -2.172998,0.79768 -0.687657,0.16504 -0.907708,0.19254 -1.210277,0.11003 z m -1.897935,-11.16756 c 0.192544,-0.24756 0.192544,-0.27507 -0.22005,-1.89794 -0.330076,-1.292793 -0.467607,-1.54035 -0.770176,-1.54035 -0.440101,0 -0.550126,0.220051 -0.880202,2.03547 -0.247557,1.34781 -0.247557,1.34781 -0.08252,1.51284 0.137532,0.11003 0.302569,0.13753 0.990227,0.11003 0.715164,-0.0275 0.825189,-0.055 0.96272,-0.22005 z m 7.976803,11.14005 c -1.045239,-0.49511 -0.907708,-0.96272 -0.907708,-1.98045 0,-1.26529 0.220051,-10.39739 0.330076,-13.698142 0.08252,-2.530579 0.137531,-2.640605 1.457834,-2.860655 0.715164,-0.110025 1.622871,-0.110025 2.117985,0.02751 0.22005,0.05501 0.52262,0.220051 0.715164,0.412595 0.192544,0.165038 0.935214,1.26529 1.677884,2.420554 0.715164,1.155265 1.347809,2.117982 1.375315,2.117982 0.08252,0 0.192544,-1.595362 0.192544,-2.833146 0,-1.842922 0.330076,-2.172997 2.310529,-2.172997 0.797683,0 1.04524,0.02751 1.375315,0.192544 0.715164,0.302569 0.660151,-0.330076 0.74267,9.022069 0.05501,4.59355 0.05501,8.41693 0.02751,8.52695 -0.110026,0.27506 -0.52262,0.60514 -0.880202,0.71516 -0.467607,0.16504 -2.503073,0.22005 -2.943174,0.11003 -1.540353,-0.46761 -0.990227,-2.31053 -0.962721,-3.60333 0.02751,-3.24574 0.110026,-2.80564 -1.072745,-4.75859 -1.457834,-2.39304 -1.48534,-2.44806 -1.622872,-2.06297 -0.02751,0.11003 -0.02751,2.31053 -0.02751,4.89612 -0.137532,3.52081 1.48534,5.39124 -2.365542,5.55628 -0.715164,0.0275 -1.375315,0.0275 -1.540353,-0.0275 z m 14.550816,0 c -1.04524,-0.49511 -0.907708,-0.96272 -0.907708,-1.98045 0,-1.37532 0.247557,-10.78247 0.330075,-13.725648 0.110026,-2.640605 0.165038,-2.723124 1.677885,-2.888162 0.852695,-0.110025 1.732897,0 2.200504,0.220051 0.247556,0.137531 0.495113,0.165038 1.347808,0.137531 1.237784,-0.02751 2.145492,0.137532 3.135719,0.550126 3.163224,1.375315 4.868615,3.988412 5.088665,7.866802 0.192544,3.30076 -1.375315,6.46398 -4.01592,8.22438 -1.292796,0.8527 -2.640604,1.26529 -4.290982,1.2928 -0.797683,0.0275 -1.237784,0.0825 -1.457834,0.16504 -0.385089,0.16504 -2.695618,0.27506 -3.108212,0.13753 z m 6.133905,-5.41874 c 1.045239,-0.49512 1.897934,-1.56786 2.172997,-2.77814 0.165038,-0.71516 0.165038,-2.00796 0.02751,-2.58559 -0.412595,-1.51285 -1.842922,-2.83315 -3.218237,-2.97068 -0.52262,-0.055 -0.962721,0.0825 -1.127759,0.41259 -0.05501,0.11003 -0.08252,1.43033 -0.05501,4.07094 0,3.30075 0.02751,3.9609 0.137531,4.07093 0.220051,0.27506 1.320303,0.13753 2.062973,-0.22005 z m 11.965263,5.33622 c -1.10025,-0.27506 -2.25552,-0.99023 -2.80564,-1.7329 -0.46761,-0.63264 -0.77018,-1.34781 -0.90771,-2.22801 -0.440102,-2.31053 0.52262,-3.5208 2.44806,-3.10821 1.10025,0.22005 1.40282,0.52262 1.67788,1.56786 0.16504,0.66015 0.46761,1.12776 0.79769,1.2928 0.8802,0.35758 1.62287,-0.57764 1.43032,-1.78791 -0.19254,-0.99023 -0.35758,-1.12776 -2.6406,-2.11799 -2.36554,-1.04524 -3.19073,-1.62287 -3.74086,-2.69562 -0.852692,-1.67788 -0.632642,-3.90589 0.52262,-5.446243 0.77018,-0.990227 2.14549,-1.870428 3.35577,-2.145491 2.64061,-0.605139 5.47375,1.017733 6.1064,3.548312 0.33008,1.292792 0.0275,2.503072 -0.68766,2.888162 -0.49511,0.24756 -1.67788,0.24756 -2.25551,0.0275 -0.52262,-0.22005 -0.71517,-0.46761 -0.93522,-1.23779 -0.30257,-1.100249 -1.04524,-1.512844 -1.89793,-1.127756 -0.8527,0.357582 -1.2928,1.320306 -0.96272,2.007956 0.22005,0.4126 0.96272,0.8527 2.42055,1.43033 0.30257,0.11003 1.07275,0.49512 1.70539,0.79768 2.31053,1.18278 3.19073,2.50308 3.19073,4.86862 0,2.173 -0.96272,3.79587 -2.75063,4.70358 -1.15526,0.60514 -2.86065,0.79768 -4.07093,0.49511 z m 13.36807,0.0275 c -1.92544,-0.49512 -3.60332,-2.06298 -4.62105,-4.37351 -0.66016,-1.45783 -0.96273,-2.97068 -0.96273,-4.8411 0,-1.43033 0.16504,-2.50308 0.52262,-3.65834 1.78791,-5.473755 6.71154,-7.399196 10.31487,-3.988415 1.37531,1.292796 1.43032,2.393048 0.16503,3.575815 -0.49511,0.52262 -0.74267,0.63265 -1.26528,0.63265 -0.52262,0 -0.82519,-0.19255 -1.54036,-0.8802 -0.33007,-0.330079 -0.74267,-0.632648 -0.99022,-0.715167 -0.38509,-0.165038 -0.4126,-0.165038 -0.77018,0 -1.84292,0.715167 -2.55809,5.446247 -1.26529,8.279397 0.30257,0.68766 0.8802,1.3203 1.3203,1.45783 0.46761,0.16504 0.77018,-0.055 1.37532,-0.93521 0.68765,-1.01773 0.79768,-1.10025 1.84292,-1.12776 1.04524,-0.0275 1.48534,0.11003 1.89793,0.57763 0.33008,0.38509 0.38509,0.74267 0.33008,1.65038 -0.055,0.99023 -0.46761,1.84292 -1.45783,2.86066 -1.84293,1.92544 -3.96091,1.70539 -4.89613,1.48534 z m 16.80634,0.0825 c -1.2928,-0.4126 -1.34781,-2.72313 -1.56786,-3.82338 -0.35758,-1.65038 -0.71516,-3.10821 -0.79768,-3.21824 -0.11003,-0.16504 -0.22005,-0.19254 -0.66015,-0.19254 -0.30257,0 -0.55013,0.0275 -0.60514,0.11002 -0.0275,0.055 -0.38509,1.54036 -0.74267,3.32827 -0.63265,3.10821 -0.66015,3.21823 -0.90771,3.43828 -0.35758,0.30257 -0.77018,0.38509 -1.78791,0.24756 -2.03547,-0.24756 -2.77814,-0.71516 -2.66811,-1.70539 0.0825,-0.63265 3.35577,-14.083226 3.65834,-14.963427 0.19254,-0.632645 0.33007,-0.852696 0.57763,-1.100252 0.46761,-0.440101 0.63265,-0.52262 1.51285,-0.660152 1.34781,-0.192544 2.47556,-0.110025 3.16322,0.275063 0.68766,0.357582 0.46761,-0.357582 3.54831,11.937738 1.2928,5.08866 1.26529,4.89612 0.66016,5.41874 -0.30257,0.27506 -0.79769,0.4401 -2.173,0.79768 -0.68766,0.16504 -0.90771,0.19254 -1.21028,0.11003 z m -1.89793,-11.16756 c 0.19254,-0.24756 0.19254,-0.27507 -0.22005,-1.89794 -0.33008,-1.292793 -0.46761,-1.54035 -0.77018,-1.54035 -0.4401,0 -0.55013,0.220051 -0.8802,2.03547 -0.24756,1.34781 -0.24756,1.34781 -0.0825,1.51284 0.13753,0.11003 0.30257,0.13753 0.99022,0.11003 0.71517,-0.0275 0.82519,-0.055 0.96273,-0.22005 z m 7.9768,11.14005 c -1.04524,-0.46761 -0.90771,-0.96272 -0.90771,-1.98045 0,-1.32031 0.22005,-10.58993 0.33007,-13.725648 0.11003,-2.613099 0.13753,-2.695617 1.56786,-2.888162 1.18277,-0.165037 2.22801,0.02751 2.6131,0.495114 l 0.19254,0.22005 0.57764,-0.22005 c 1.62287,-0.660151 3.27325,-0.495114 4.73108,0.467607 0.96272,0.660151 1.62287,1.48534 2.09048,2.640605 1.43033,3.603324 -0.52262,7.729274 -4.01592,8.636974 -0.82519,0.19255 -1.40282,0.22005 -2.31053,0.0275 -0.57763,-0.11002 -0.71516,-0.13753 -0.85269,-0.0275 -0.11003,0.11003 -0.13754,0.4401 -0.11003,2.83315 0.0275,2.66811 0.68766,3.43829 -2.36554,3.57582 -0.71517,0.0275 -1.37532,0 -1.54035,-0.055 z m 5.74881,-9.57219 c 0.57763,-0.16504 1.15527,-0.71517 1.48534,-1.40282 0.24756,-0.49512 0.30257,-0.68766 0.33008,-1.32031 0.0275,-0.93521 -0.16504,-1.54035 -0.74267,-2.172995 -0.52262,-0.577632 -1.01774,-0.825189 -1.70539,-0.825189 -0.66015,0 -0.99023,0.110026 -1.12776,0.385089 -0.16504,0.275063 -0.13753,4.786095 0.0275,5.171185 0.055,0.13753 0.16503,0.24756 0.30256,0.27506 0.13754,0.0275 0.27507,0.0825 0.33008,0.0825 0.13753,0.055 0.63265,-0.0275 1.10025,-0.19254 z m 8.69197,9.5997 c -0.22005,-0.055 -0.52262,-0.13754 -0.63265,-0.22005 -0.30257,-0.19255 -0.57763,-0.79769 -0.63264,-1.40283 -0.0275,-0.4401 0.055,-4.73108 0.19254,-10.0398 0.0275,-0.85269 0.0825,-2.393044 0.11003,-3.465789 0.0275,-1.072746 0.0825,-2.090479 0.13753,-2.283023 0.13753,-0.495114 0.71516,-1.04524 1.29279,-1.155265 0.52262,-0.137531 7.15164,-0.05501 7.72927,0.08252 0.68766,0.192544 0.93522,0.770176 0.93522,2.283023 0,0.74267 -0.0275,0.96272 -0.19255,1.26529 -0.27506,0.605138 -0.30257,0.605138 -2.77813,0.687657 -2.47557,0.08252 -2.5856,0.110025 -2.69562,0.632648 -0.055,0.41259 0.0275,1.40282 0.13753,1.54035 0.0825,0.0825 0.49511,0.13753 1.56786,0.19254 1.43033,0.055 1.45783,0.055 1.67788,0.30257 0.19255,0.19255 0.24756,0.33008 0.30257,0.79769 0.11003,1.12775 -0.11002,1.78791 -0.63264,1.89793 -0.13753,0.0275 -0.74267,0.055 -1.3203,0.055 -0.60514,0 -1.18277,0.0275 -1.2928,0.055 -0.35758,0.11002 -0.38509,0.41259 -0.35758,2.31053 0.0275,1.51284 0.055,1.81541 0.16504,1.92544 0.11002,0.11002 0.4676,0.13753 2.31053,0.19254 1.65037,0.055 2.22801,0.11003 2.36554,0.19254 0.49511,0.30257 0.71516,1.43033 0.55012,2.6131 -0.11002,0.8802 -0.27506,1.15527 -0.71516,1.34781 -0.33008,0.16504 -0.74267,0.16504 -4.09844,0.22005 -2.03547,0.0275 -3.87839,0 -4.12594,-0.0275 z"
       id="text34"
       aria-label="LANDSCAPE" />
  </g>
</svg>
